<?xml version="1.0" standalone="no"?>
<!DOCTYPE svg PUBLIC "-//W3C//DTD SVG 20010904//EN"
 "http://www.w3.org/TR/2001/REC-SVG-20010904/DTD/svg10.dtd">
<svg version="1.0" xmlns="http://www.w3.org/2000/svg"
 width="448.000000pt" height="180.000000pt" viewBox="0 0 448.000000 180.000000"
 preserveAspectRatio="xMidYMid meet">
<metadata>
Created by potrace 1.15, written by Peter Selinger 2001-2017
</metadata>
<g transform="translate(0.000000,180.000000) scale(0.100000,-0.100000)"
fill="#000000" stroke="none">
<path d="M990 1464 c-67 -24 -105 -57 -137 -121 l-28 -58 -3 -353 c-3 -305 -1
-361 13 -410 33 -112 122 -161 269 -149 101 8 161 32 217 86 76 74 79 95 79
486 0 275 -3 339 -16 378 -21 61 -86 121 -155 141 -66 20 -180 20 -239 0z
m169 -159 c16 -8 31 -22 35 -30 3 -9 6 -163 6 -341 0 -365 -2 -375 -65 -393
-43 -11 -91 2 -105 29 -6 11 -10 152 -10 347 0 351 2 366 50 390 33 17 55 16
89 -2z"/>
<path d="M1520 946 l0 -526 33 0 c17 1 102 5 187 10 174 10 230 25 279 72 67
65 66 59 69 428 2 234 0 347 -8 375 -18 61 -57 105 -119 133 -53 25 -67 26
-248 30 l-193 4 0 -526z m344 343 l26 -20 0 -315 0 -315 -25 -24 c-21 -22 -33
-25 -90 -25 l-65 0 0 360 0 360 64 0 c49 0 69 -5 90 -21z"/>
<path d="M2210 955 l0 -515 100 0 100 0 0 220 0 220 120 0 121 0 -3 78 -3 77
-117 3 -118 3 0 134 0 135 150 0 150 0 0 80 0 80 -250 0 -250 0 0 -515z"/>
<path d="M2790 1147 c0 -178 3 -412 7 -520 l6 -197 31 -4 c17 -3 123 -10 235
-16 113 -7 211 -14 218 -17 10 -4 13 14 13 81 l0 86 -52 1 c-29 1 -98 4 -153
8 l-100 6 -3 448 -2 447 -100 0 -100 0 0 -323z"/>
<path d="M3380 931 c0 -297 3 -542 8 -544 4 -3 49 -8 100 -12 l92 -7 0 551 0
551 -100 0 -100 0 0 -539z"/>
<path d="M160 859 c0 -567 1 -600 18 -595 9 3 54 10 100 17 l82 12 0 191 1
191 32 63 33 63 74 -231 c40 -127 78 -234 83 -237 14 -9 197 19 197 30 0 5
-50 160 -110 345 l-111 335 111 205 c60 112 110 206 110 208 0 2 -44 4 -98 4
l-98 0 -112 -227 -112 -226 0 226 0 227 -100 0 -100 0 0 -601z"/>
<path d="M3668 1443 c5 -10 53 -133 106 -275 l96 -256 -26 -69 c-14 -37 -62
-159 -106 -271 -44 -112 -77 -206 -73 -210 3 -4 45 -12 91 -18 74 -9 86 -8 93
5 4 9 34 89 67 178 32 90 61 159 65 155 4 -4 35 -93 70 -198 l62 -190 101 -16
c56 -9 102 -15 104 -14 2 3 -180 540 -205 604 -7 19 12 81 93 305 l103 282
-91 3 c-50 1 -94 -1 -98 -5 -4 -4 -33 -84 -65 -177 l-58 -168 -22 58 c-12 33
-39 112 -61 177 l-38 117 -109 0 c-99 0 -107 -1 -99 -17z"/>
</g>
</svg>
